<?xml version="1.0" encoding="UTF-8"?>
<!DOCTYPE svg PUBLIC "-//W3C//DTD SVG 1.1//EN" "http://www.w3.org/Graphics/SVG/1.1/DTD/svg11.dtd">
<!-- Creator: CorelDRAW -->
<svg xmlns="http://www.w3.org/2000/svg" xml:space="preserve" width="1.70666in" height="1.70666in" style="shape-rendering:geometricPrecision; text-rendering:geometricPrecision; image-rendering:optimizeQuality; fill-rule:evenodd; clip-rule:evenodd"
viewBox="0 0 1.70666 1.70666"
 xmlns:xlink="http://www.w3.org/1999/xlink">
 <defs>
  <style type="text/css">
   <![CDATA[
    .fil0 {fill:black}
   ]]>
  </style>
 </defs>
 <g id="Layer_x0020_1">
  <metadata id="CorelCorpID_0Corel-Layer"/>
  <g id="_428081584">
   <g>
    <g>
     <g id="_428080960">
      <path id="_475183056" class="fil0" d="M1.37575 1.44235c-0.0114961,0 -0.0210748,-0.0090315 -0.021626,-0.0206339 -0.00187795,-0.0394134 0.0203346,-0.0675 0.0398898,-0.0875669l0.268079 -0.274748 -0.0700157 -0.521209c-5.11811e-005,-0.000393701 -9.05512e-005,-0.000791339 -0.000125984,-0.0011811 -0.00237402,-0.0301811 -0.0153976,-0.0523071 -0.0366732,-0.0623031 -0.0177283,-0.00833071 -0.038563,-0.00658661 -0.0543622,0.00455512 -0.0192756,0.0135827 -0.0282008,0.0385512 -0.0251339,0.0703031l0.0299567 0.310142c0.00115354,0.0119094 -0.00756693,0.0225 -0.0194803,0.0236496 -0.0119409,0.00116142 -0.0225,-0.00757087 -0.0236496,-0.0194843l-0.0299606 -0.310142c-0.00456299,-0.0472244 0.0112165,-0.0872795 0.0432953,-0.10989 0.0285039,-0.0200906 0.0659567,-0.0232874 0.0977559,-0.00835433 0.0352992,0.0165827 0.0576496,0.0521024 0.0613976,0.0975079l0.0713425 0.531098c0.000885827,0.00660236 -0.00131102,0.013248 -0.00596457,0.0180118l-0.275441 0.282291c-0.0202205,0.020752 -0.0284882,0.0372756 -0.0276299,0.055252 0.000570866,0.0119528 -0.00866142,0.0221063 -0.0206142,0.0226772 -0.00034252,1.5748e-005 -0.000692913,2.3622e-005 -0.00103937,2.3622e-005z"/>
     </g>
     <g id="_428081248">
      <path id="_475183224" class="fil0" d="M1.0514 1.44235c-0.0108307,0 -0.020189,-0.00811024 -0.0214882,-0.0191299 -0.0195236,-0.165496 -0.0168819,-0.173961 -0.0145551,-0.181433 0.0248543,-0.0800472 0.287579,-0.338181 0.401583,-0.394551 0.0506969,-0.0250827 0.0965866,-0.00369291 0.119567,0.0286378 0.0245709,0.0345669 0.030122,0.0922953 -0.015752,0.137354l-0.163984 0.161189c-0.0085315,0.00838976 -0.022252,0.00827165 -0.0306417,-0.00026378 -0.00838976,-0.00853543 -0.00826772,-0.0222559 0.00026378,-0.0306417l0.163992 -0.161193c0.0279134,-0.0274173 0.0255354,-0.0606063 0.0107992,-0.0813386 -0.0119685,-0.0168346 -0.0353346,-0.0295945 -0.0650354,-0.0149016 -0.110173,0.0544724 -0.356366,0.301461 -0.379004,0.367315 -0.000511811,0.00779528 0.00109449,0.0400866 0.0157953,0.164748 0.00140551,0.0118819 -0.00709055,0.0226575 -0.0189764,0.0240551 -0.000858268,0.000102362 -0.0017126,0.000153543 -0.00256299,0.000153543z"/>
     </g>
     <g id="_428078536">
      <path id="_475183176" class="fil0" d="M1.45757 1.62477l-0.477921 0c-0.0119646,0 -0.0216654,-0.00970079 -0.0216654,-0.0216654l0 -0.182425c0,-0.0119685 0.00970079,-0.0216654 0.0216654,-0.0216654l0.477921 0c0.0119685,0 0.0216693,0.00969685 0.0216693,0.0216654l0 0.182425c0,0.0119646 -0.00970079,0.0216654 -0.0216693,0.0216654zm-0.456256 -0.0433346l0.434591 0 0 -0.139091 -0.434591 0 0 0.139091z"/>
     </g>
     <g id="_428081080">
      <path id="_475182696" class="fil0" d="M1.07123 1.55483c-0.00019685,0 -0.000393701,-3.93701e-006 -0.000590551,-7.87402e-006 -0.0119606,-0.000318898 -0.0214016,-0.0102717 -0.0210827,-0.0222362l0.00108661 -0.0407598c0.000318898,-0.0119606 0.0103465,-0.0212874 0.0222323,-0.0210827 0.0119646,0.000318898 0.0214055,0.0102717 0.0210827,0.0222362l-0.00108268 0.0407598c-0.000311024,0.0117638 -0.00994882,0.0210906 -0.0216457,0.0210906z"/>
     </g>
     <g id="_428081968">
      <path id="_475182552" class="fil0" d="M0.330913 1.44235c-0.000346457,0 -0.00069685,-7.87402e-006 -0.00105118,-2.3622e-005 -0.0119528,-0.000570866 -0.0211811,-0.0107244 -0.0206102,-0.0226772 0.000858268,-0.0179803 -0.00740945,-0.0345079 -0.0276339,-0.0552598l-0.275437 -0.28228c-0.00465354,-0.00477165 -0.00685039,-0.0114173 -0.00596457,-0.0180157l0.0713425 -0.531102c0.00375197,-0.0454055 0.0261024,-0.0809252 0.0614016,-0.0975039 0.0317992,-0.0149409 0.069252,-0.0117323 0.097752,0.00835433 0.0320787,0.0226102 0.0478622,0.0626654 0.0432992,0.10989l-0.0299606 0.310142c-0.00115354,0.0119094 -0.0117677,0.0206063 -0.0236496,0.0194803 -0.0119094,-0.00114961 -0.0206339,-0.0117362 -0.0194803,-0.0236496l0.0299567 -0.310138c0.00306693,-0.031752 -0.00585433,-0.0567205 -0.0251339,-0.0703071 -0.0158031,-0.0111378 -0.0366339,-0.012874 -0.0543622,-0.00455118 -0.0212756,0.00999606 -0.0342992,0.0321181 -0.0366732,0.0622992 -3.14961e-005,0.000397638 -7.48031e-005,0.000791339 -0.000125984,0.00118504l-0.0700157 0.521205 0.268075 0.27474c0.0195669,0.0200748 0.0417717,0.0481654 0.0398937,0.0875748 -0.000555118,0.0116063 -0.0101339,0.0206378 -0.021622,0.0206378z"/>
     </g>
     <g id="_428082040">
      <path id="_475182384" class="fil0" d="M0.655264 1.44235c-0.000846457,0 -0.00170472,-5.11811e-005 -0.00256693,-0.000153543 -0.0118819,-0.00140157 -0.0203819,-0.0121693 -0.0189803,-0.0240551 0.0147087,-0.124626 0.0163189,-0.156937 0.0158031,-0.164748 -0.0226693,-0.0658898 -0.268843,-0.312846 -0.379,-0.367315 -0.0297047,-0.0146969 -0.0530709,-0.00193307 -0.0650394,0.0149016 -0.0147362,0.0207362 -0.0171142,0.0539252 0.0107913,0.0813346l0.164 0.161197c0.0085315,0.00838976 0.00865354,0.0221063 0.00026378,0.0306378 -0.00838583,0.00854331 -0.0221024,0.00865748 -0.0306417,0.00026378l-0.163988 -0.161185c-0.0458661,-0.0450551 -0.040315,-0.102783 -0.0157441,-0.13735 0.0229764,-0.0323346 0.0688583,-0.0537205 0.119571,-0.0286378 0.113996,0.0563661 0.376724,0.3145 0.401591,0.394571 0.00232283,0.00746063 0.00496457,0.015937 -0.0145669,0.181409 -0.00130315,0.0110197 -0.0106614,0.0191299 -0.0214921,0.0191299z"/>
     </g>
     <g id="_428081272">
      <path id="_475181544" class="fil0" d="M0.727016 1.62477l-0.477921 0c-0.0119685,0 -0.0216654,-0.00970079 -0.0216654,-0.0216654l0 -0.182425c0,-0.0119685 0.00969685,-0.0216654 0.0216654,-0.0216654l0.477921 0c0.0119646,0 0.0216654,0.00969685 0.0216654,0.0216654l0 0.182425c0,0.0119646 -0.00970079,0.0216654 -0.0216654,0.0216654zm-0.456256 -0.0433346l0.434587 0 0 -0.139091 -0.434587 0 0 0.139091z"/>
     </g>
     <g id="_428081680">
      <path id="_475181424" class="fil0" d="M0.635437 1.55483c-0.0117008,0 -0.0213386,-0.00932677 -0.0216496,-0.0210906l-0.00108268 -0.0407598c-0.000318898,-0.0119646 0.00912205,-0.0219173 0.0210866,-0.0222362 0.0118701,-0.000216535 0.0219134,0.00912205 0.0222323,0.0210827l0.00108268 0.0407598c0.000314961,0.0119646 -0.00912205,0.0219173 -0.0210866,0.0222362 -0.000188976,3.93701e-006 -0.000385827,7.87402e-006 -0.000582677,7.87402e-006z"/>
     </g>
    </g>
    <g id="_428081848">
     <path id="_475182000" class="fil0" d="M0.843717 1.03604c-0.00240945,0 -0.0048189,-0.000401575 -0.00712992,-0.00120866 -0.0915039,-0.0318858 -0.185244,-0.094189 -0.257185,-0.170929 -0.0583228,-0.0622205 -0.12785,-0.161386 -0.12785,-0.280488l0 -0.371787c0,-0.00962992 0.00635827,-0.0181063 0.0156024,-0.0208031l0.370496 -0.108063c0.00396457,-0.00115354 0.00817323,-0.00115354 0.0121378,0l0.370496 0.108063c0.00924409,0.00269685 0.0155984,0.0111732 0.0155984,0.0208031l0 0.371787c0,0.119098 -0.0695236,0.218264 -0.12785,0.280484 -0.071937,0.0767402 -0.165677,0.139047 -0.257181,0.170933 -0.00231102,0.000807087 -0.00472441,0.00120866 -0.00713386,0.00120866zm-0.348835 -0.808165l0 0.355539c0,0.104937 0.0631575,0.194335 0.116134,0.250846 0.0644409,0.0687441 0.150921,0.127039 0.232705,0.157098 0.0817756,-0.0300591 0.168256,-0.0883583 0.232701,-0.157098 0.0529803,-0.0565118 0.11613,-0.145909 0.11613,-0.250846l3.93701e-006 -0.355539 -0.348839 -0.101744 -0.348835 0.101744z"/>
    </g>
    <g id="_428081440">
     <path id="_475180584" class="fil0" d="M0.843717 0.906957c-0.00240945,0 -0.0048189,-0.000401575 -0.00712992,-0.00120472 -0.0664764,-0.0231654 -0.134543,-0.0683898 -0.186752,-0.124083 -0.0425551,-0.0453937 -0.0932756,-0.117839 -0.0932756,-0.205189l0 -0.266421c0,-0.00962992 0.00635827,-0.0181024 0.0155984,-0.0207992l0.265492 -0.0774331c0.00396063,-0.00115748 0.00817323,-0.00115748 0.0121339,0l0.265484 0.0774331c0.00924409,0.00269685 0.0156024,0.0111693 0.0156024,0.0207992l0 0.266421c0,0.0873504 -0.0507244,0.159791 -0.0932717,0.205189 -0.0522087,0.0556929 -0.120276,0.100917 -0.186752,0.124083 -0.00230709,0.00080315 -0.00472047,0.00120472 -0.00712992,0.00120472zm-0.243823 -0.580646l0 0.250169c0,0.0571024 0.0289646,0.119449 0.0815591,0.175551 0.0449961,0.048 0.105154,0.0887795 0.162268,0.110217 0.0571102,-0.021437 0.117268,-0.0622165 0.162264,-0.110217 0.0525945,-0.0561063 0.0815591,-0.118449 0.0815591,-0.175551l0 -0.250169 -0.243819 -0.0711142 -0.243831 0.0711142z"/>
    </g>
    <g id="_428081944">
     <path id="_475181088" class="fil0" d="M0.773122 0.68587c-0.00554724,0 -0.0110906,-0.00211417 -0.0153189,-0.00634646l-0.0693031 -0.0693031c-0.00846063,-0.00846457 -0.00846063,-0.0221811 0,-0.0306417 0.00846063,-0.00846063 0.0221811,-0.00846063 0.0306417,0l0.0539803 0.0539843 0.195165 -0.195161c0.00846457,-0.00846457 0.0221811,-0.00846063 0.0306417,0 0.00846063,0.00846063 0.00846063,0.0221772 0,0.0306378l-0.210488 0.21048c-0.00422835,0.00423228 -0.00977559,0.00635039 -0.0153189,0.00635039z"/>
    </g>
   </g>
  </g>
 </g>
</svg>
